<!-- Generated by IcoMoon.io -->
<svg version="1.1" xmlns="http://www.w3.org/2000/svg" width="448" height="448" viewBox="0 0 448 448">
<title></title>
<g id="icomoon-ignore">
</g>
<path fill="#000" d="M193.349 13.113l-41.24-10.752c-5.357-1.485-11.508-2.338-17.859-2.338-31.985 0-58.913 21.647-66.934 51.091l-0.113 0.486-10.294 38.88c33.258-41.153 80.967-69.475 135.305-77.233l1.134-0.133z"></path>
<path fill="#000" d="M12.457 257.864l-10.097 38.093c-1.475 5.339-2.322 11.469-2.322 17.797 0 31.979 21.64 58.904 51.075 66.93l0.486 0.113 39.339 10.49c-40.975-32.422-69.53-78.971-78.312-132.189l-0.168-1.234z"></path>
<path fill="#000" d="M396.401 67.203l-44.124-11.736c43.88 33.989 73.895 84.055 81.19 141.22l0.11 1.055 12.129-45.895c1.441-5.28 2.269-11.342 2.269-17.598 0-31.983-21.646-58.911-51.087-66.933l-0.486-0.113z"></path>
<path fill="#000" d="M253.668 434.428l42.289 11.408c5.339 1.475 11.469 2.322 17.797 2.322 31.979 0 58.904-21.64 66.93-51.075l0.113-0.486 11.933-44.846c-33.081 43.732-81.9 74.050-137.886 82.53l-1.176 0.147z"></path>
<path fill="#000" d="M224.033 29.766c-0.020 0-0.042 0-0.066 0-107.29 0-194.267 86.976-194.267 194.267s86.976 194.267 194.267 194.267c107.29 0 194.267-86.976 194.267-194.267v0c0-107.268-86.939-194.229-194.198-194.267h-0.004zM114.016 126.67c5.106-25.788 27.545-44.963 54.463-44.963 30.634 0 55.467 24.833 55.467 55.467s-24.833 55.467-55.467 55.467c-3.703 0-7.322-0.363-10.822-1.055l0.352 0.058c-25.805-5.092-44.997-27.54-44.997-54.47 0-3.716 0.365-7.346 1.062-10.857l-0.058 0.353zM194.726 294.514c-5.136 25.752-27.558 44.888-54.449 44.888-30.634 0-55.467-24.833-55.467-55.467s24.833-55.467 55.467-55.467c3.722 0 7.358 0.367 10.874 1.065l-0.353-0.059c25.78 5.113 44.946 27.548 44.946 54.46 0 3.742-0.371 7.399-1.077 10.933l0.059-0.354zM218.263 249.603c-11.455-2.275-19.97-12.245-19.97-24.203 0-13.615 11.037-24.652 24.652-24.652s24.652 11.037 24.652 24.652c0 1.603-0.153 3.171-0.445 4.689l0.025-0.155c-2.215 11.527-12.22 20.118-24.231 20.118-1.656 0-3.275-0.163-4.839-0.475l0.157 0.026zM333.984 321.265c-5.106 25.788-27.545 44.963-54.464 44.963-30.634 0-55.467-24.833-55.467-55.467s24.833-55.467 55.467-55.467c3.703 0 7.322 0.363 10.822 1.055l-0.352-0.058c25.805 5.092 44.997 27.54 44.997 54.47 0 3.716-0.365 7.346-1.062 10.857l0.058-0.353zM297.268 218.46c-25.788-5.106-44.963-27.545-44.963-54.464 0-30.634 24.833-55.467 55.467-55.467s55.467 24.833 55.467 55.467c0 3.703-0.363 7.322-1.055 10.822l0.058-0.352c-5.067 25.836-27.529 45.060-54.482 45.060-3.711 0-7.337-0.364-10.844-1.060l0.353 0.058z"></path>
</svg>
