<!-- Generated by IcoMoon.io -->
<svg version="1.1" xmlns="http://www.w3.org/2000/svg" width="512" height="512" viewBox="0 0 512 512">
<title></title>
<g id="icomoon-ignore">
</g>
<path fill="#000" d="M291.503 2.491h-0.623c-3.737-0.623-7.474-1.246-11.834-1.246h-3.737c-3.115 0-5.606-0.623-8.72-0.623h-23.669c-1.869 0-3.737 0-5.606 0.623-1.869 0-3.114 0-4.983 0.623-1.869 0-3.737 0.623-4.983 0.623-1.869 0-3.114 0.623-4.983 0.623s-3.737 0.623-4.983 0.623c-1.869 0-3.114 0.623-4.983 0.623s-3.737 0.623-4.983 1.245c-1.245 0-3.114 0.623-4.36 0.623-1.869 0.623-3.114 0.623-4.983 1.245-1.245 0.623-3.114 0.623-4.36 1.246-1.869 0.623-3.114 0.623-4.983 1.245-1.245 0.623-3.114 0.623-4.36 1.245-1.869 0.623-3.114 1.245-4.983 1.245-1.245 0.623-3.114 0.623-4.36 1.245-1.869 0.623-3.114 1.245-4.983 1.869-1.245 0.623-3.114 1.245-4.36 1.245-1.869 0.623-3.114 1.245-4.983 1.869-1.245 0.623-2.492 1.245-4.36 1.869s-3.114 1.245-4.983 1.869l-3.737 1.869c-1.869 0.623-3.114 1.869-4.983 2.491l-3.737 1.869c-1.869 0.623-3.114 1.869-4.983 2.491l-3.737 1.868c-1.869 0.623-3.115 1.868-4.983 3.114l-3.737 1.868c-1.868 1.245-3.737 2.492-4.983 3.114s-10.589 7.474-10.589 7.474-46.715-35.504-65.401-44.846-40.486 3.737-40.486 24.915v227.971c0 135.163 105.265 246.034 238.56 254.755h29.275c2.491 0 4.36 0 6.851-0.623 1.868 0 4.36 0 6.228-0.623 2.491 0 4.36-0.623 6.851-0.623 1.868 0 4.36-0.623 6.228-0.623 1.868-0.623 4.36-0.623 6.228-1.245s4.36-0.623 6.228-1.245c1.868-0.623 4.36-1.245 6.228-1.245 1.868-0.623 3.737-0.623 6.228-1.245l6.228-1.868 5.606-1.868 6.228-1.868 5.606-1.868c1.868-0.623 3.737-1.245 6.228-2.491 1.868-0.623 3.737-1.245 5.606-2.491 1.868-0.623 3.737-1.868 5.606-2.491s3.737-1.868 5.606-2.491c1.868-0.623 3.737-1.868 5.606-3.115 1.868-0.623 3.737-1.868 5.606-2.491 1.868-1.245 3.737-1.868 5.606-3.115s3.737-1.868 4.983-3.115c1.868-1.245 3.737-2.491 5.606-3.115 1.868-1.245 3.115-1.868 4.983-3.115s3.737-2.491 4.983-3.737c1.868-1.245 3.115-2.491 4.983-3.737s3.115-2.491 4.983-3.737c1.868-1.245 3.115-2.491 4.983-3.737s3.115-2.491 4.983-4.36c1.245-1.245 3.115-2.491 4.36-3.737 1.868-1.245 3.115-3.115 4.36-4.36s3.115-2.491 4.36-4.36l4.36-4.36c1.245-1.245 2.491-2.491 3.737-4.36s1.868-3.115 3.115-4.983c1.245-1.245 2.491-3.115 3.737-4.36 1.245-1.868 2.491-3.115 3.737-4.983s2.491-3.115 3.737-4.983 2.491-3.737 3.737-4.983 2.491-3.115 3.737-4.983l3.737-5.606c1.245-1.868 1.868-3.115 3.115-4.983s1.868-3.737 3.115-5.606 1.868-3.115 3.115-4.983 1.868-3.737 3.115-5.606c0.623-1.868 1.868-3.737 2.491-4.983 1.245-1.868 1.868-3.737 2.491-6.228 0.623-1.868 1.868-3.737 2.491-5.606s1.868-4.36 2.491-6.228l1.868-5.606c0.623-1.868 1.245-4.36 2.491-6.228l1.868-5.606 1.868-6.851 1.868-5.606 1.868-6.851c0.623-1.868 0.623-3.737 1.245-5.606 0.623-2.491 0.623-4.983 1.245-6.851s0.623-3.737 1.245-5.606c0.623-2.491 0.623-4.983 1.245-7.474 0-1.868 0.623-3.737 0.623-4.983 0-3.115 0.623-5.606 0.623-8.72 0-1.245 0-3.115 0.623-4.36 0-4.36 0-8.098 0.623-12.457v-0.623c0-128.935-95.922-235.446-219.874-252.886zM402.998 223.611l-148.244 147.62c-9.343 9.966-22.423 14.949-34.881 14.949s-25.537-4.983-35.504-14.326l-79.105-79.728c-19.309-19.309-19.309-51.076 0-70.385s51.076-19.309 70.385 0l44.224 44.224 112.74-112.74c19.309-19.309 51.075-19.309 70.385 0s19.309 51.076 0 70.385z"></path>
</svg>
