<!-- Generated by IcoMoon.io -->
<svg version="1.1" xmlns="http://www.w3.org/2000/svg" width="550" height="512" viewBox="0 0 550 512">
<title></title>
<g id="icomoon-ignore">
</g>
<path fill="#000" d="M90.689 2.073c-43.012 9.12-75.556 39.903-87.371 82.604l-2.799 10.157-0.311 113.904c-0.311 124.269-0.414 121.056 5.7 139.194 13.578 40.94 50.060 70.582 93.072 75.867 5.804 0.726 31.508 1.14 67.68 1.14h58.248v-2.488c0-4.872-4.145-15.754-8.084-20.832-3.939-5.286-12.126-10.986-18.863-13.163-2.384-0.829-20.003-1.451-52.34-1.865-54.413-0.726-52.547-0.518-68.405-8.603-6.219-3.213-10.468-6.426-17.101-13.059-13.267-13.37-19.485-25.808-21.869-43.323-0.622-5.286-0.933-45.293-0.725-114.837 0.414-118.569-0.103-110.588 7.462-126.445 9.328-19.692 26.222-33.892 47.78-40.11l8.291-2.384h173.603c163.135 0 174.018 0.103 180.34 1.865 21.765 5.907 39.074 20.003 48.712 39.592 8.292 16.686 7.774 8.188 7.774 133.182 0 125.305 0.518 116.185-7.981 133.493-7.255 14.821-22.076 28.606-37.83 35.239-12.022 5.079-15.339 5.389-65.71 5.389-29.538 0-49.438 0.414-53.273 1.14-12.437 2.28-12.956 2.695-69.649 59.284-29.227 29.228-53.169 53.48-53.169 54.102 0 1.969 11.194 8.603 16.686 9.846 7.877 1.866 17.931 0.829 25.289-2.591 5.389-2.488 11.712-8.291 46.743-43.219l40.421-40.214h44.048c25.704 0 47.78-0.518 53.273-1.14 25.289-3.11 48.401-14.406 66.332-32.544 14.096-14.199 23.942-31.3 29.331-51.096l2.798-10.053 0.311-113.904c0.311-122.818 0.311-121.263-5.182-138.468-6.529-20.728-21.455-41.665-39.074-55.035-9.535-7.152-27.673-15.961-40.007-19.381l-10.365-2.799-177.231-0.208c-170.597-0.207-177.542-0.103-186.559 1.762z"></path>
<path fill="#000" d="M112.35 100.949c-0.311 0.725-0.415 28.813-0.207 62.394 0.415 59.595 0.518 61.254 2.695 68.612 9.846 32.544 35.757 53.169 68.716 54.827 14.095 0.726 23.941-1.243 37.208-7.67 8.395-4.042 11.090-6.115 19.174-14.199 6.633-6.633 10.468-11.608 13.163-16.686 14.096-27.258 11.505-57.833-6.944-82.189-9.431-12.541-25.703-23.009-41.458-26.74-15.65-3.627-35.861-1.451-49.334 5.286l-5.078 2.591v-5.597c0-17.723-7.981-31.507-22.076-37.934-7.877-3.524-15.028-4.767-15.858-2.695zM202.416 178.060c7.358 3.316 15.443 11.505 18.967 19.174 3.835 8.395 4.042 19.899 0.518 28.917-6.633 17.101-25.703 26.74-43.634 22.18-12.023-3.109-20.936-10.882-25.703-22.802-3.42-8.499-3.006-21.351 1.14-29.227 4.975-9.743 10.054-14.406 20.314-18.76 4.975-2.073 7.151-2.384 14.614-2.073 6.012 0.311 10.364 1.14 13.785 2.591z"></path>
<path fill="#000" d="M353.114 137.95c-28.606 3.316-53.273 23.631-62.186 51.2-0.933 2.798-7.566 33.374-14.717 67.887-7.255 34.514-13.37 63.844-13.681 65.192l-0.622 2.488 9.328-0.518c11.401-0.518 18.552-3.627 25.497-11.090 6.737-7.151 8.395-11.193 12.23-28.813l3.317-15.65 4.767 3.627c23.113 17.62 57.418 19.589 83.019 4.767 3.731-2.176 10.572-7.774 15.236-12.437 6.841-6.841 9.328-10.261 13.163-18.137 8.084-16.48 10.26-29.953 7.462-46.225-3.005-17.101-9.743-29.953-22.18-41.872-12.022-11.505-26.325-18.345-43.012-20.522-8.291-1.036-7.877-1.036-17.62 0.103zM378.507 179.096c7.774 3.731 13.784 9.95 17.516 17.619 3.42 7.255 3.938 20.522 1.036 28.398-7.981 21.040-31.507 30.368-51.615 20.522-21.973-10.882-27.466-39.903-10.986-58.144 8.188-9.017 16.375-12.541 28.813-12.126 7.048 0.311 9.431 0.829 15.236 3.731z"></path>
</svg>
