<!-- Generated by IcoMoon.io -->
<svg version="1.1" xmlns="http://www.w3.org/2000/svg" width="497" height="512" viewBox="0 0 497 512">
<title></title>
<g id="icomoon-ignore">
</g>
<path fill="#000" d="M244.719 51.2c-49.248 10.63-106.739 52.068-143.62 103.485-54.671 76.583-71.376 173.993-40.136 236.257 18.875 37.966 53.804 64.434 100.665 76.8 22.996 6.075 68.122 5.64 90.685-0.868 50.766-14.536 92.637-49.248 146.224-121.491 42.088-56.841 44.257-59.661 59.661-75.499l14.969-15.186-0.651-17.139-0.651-16.922-11.932 9.329c-6.509 5.207-29.939 27.986-52.068 50.549-44.692 45.776-69.858 66.603-96.108 79.62-29.071 14.318-54.238 18.007-82.875 11.932-8.244-1.736-15.404-3.254-15.62-3.254-1.518 0-9.329 30.156-10.631 41.004-1.302 12.8-1.518 13.234-7.16 11.716-10.631-2.387-26.901-11.932-37.099-21.478-13.234-12.366-22.779-30.59-26.251-49.681-2.169-13.451-3.688-16.488-12.8-26.468-15.838-17.356-20.61-28.637-20.61-49.681 0-15.837 0.868-18.875 8.461-34.278 24.299-49.248 91.77-90.901 152.298-94.156 25.6-1.302 39.702 1.518 57.925 11.065 13.668 7.16 28.854 22.78 31.24 31.674 3.688 14.536-19.091 33.844-53.803 45.125-27.769 9.329-52.501 12.583-71.376 9.329-25.817-4.339-35.797-14.101-35.797-34.929v-12.366l-5.423 2.821c-7.16 3.688-19.091 15.62-22.996 22.996-9.329 18.224-7.593 39.268 4.556 53.587l7.593 8.678-4.339 5.423c-16.488 21.044-20.61 51.2-9.98 74.63 5.641 12.366 23.648 33.193 28.637 33.193 1.302 0 3.037-4.556 3.688-9.979 0.434-5.423 4.556-17.139 8.895-25.817 13.451-27.118 32.326-41.221 96.977-71.376 39.484-18.44 49.248-24.732 64.434-41.221 19.526-21.478 28.637-47.946 28.637-83.091 0-11.065-1.084-25.166-2.387-31.458-12.583-60.529-74.847-97.193-141.234-82.874z"></path>
</svg>
