<!-- Generated by IcoMoon.io -->
<svg version="1.1" xmlns="http://www.w3.org/2000/svg" width="448" height="448" viewBox="0 0 448 448">
<title></title>
<g id="icomoon-ignore">
</g>
<path fill="#000" d="M448 426.443v3.437c-3.778 2.266-8.151 4.091-12.79 5.242l-0.331 0.070c-4.684 0.499-10.119 0.783-15.62 0.783s-10.936-0.284-16.291-0.839l0.67 0.056c-14.812-1.036-28.522-4.729-41.001-10.606l0.7 0.296c-5.358-3.962-12.095-6.342-19.388-6.342-3.681 0-7.22 0.606-10.523 1.724l0.231-0.068c-4.998 2.499-10.31 4.374-14.996 6.873-17.483 8.743-37.771 15.297-59.133 18.597l-1.162 0.148c-5.978 0.215-11.652 1.114-17.072 2.622l0.514-0.122h-35.303s-1.875 0-2.812 0c-11.74-0.976-22.407-2.635-32.813-4.984l1.571 0.298c-31.004-7.448-58.202-20.413-81.833-37.918l0.606 0.429c-47.875-34.962-80.757-87.992-88.61-148.865l-0.115-1.094c-0.36-5.607-1.25-10.833-2.628-15.859l0.129 0.55v-36.24c0.287-1.456 0.451-3.13 0.451-4.842s-0.164-3.386-0.477-5.007l0.027 0.165c5.441-39.476 20.687-74.631 43.183-103.927l-0.382 0.518c22.479-30.641 51.936-54.888 86.106-70.663l1.369-0.567c17.089-8.003 36.932-14.208 57.713-17.626l1.333-0.181c5.866-0.214 11.432-1.113 16.741-2.62l-0.496 0.12h35.928s1.875 0 3.124 0c18.246 1.867 34.972 5.837 50.774 11.707l-1.413-0.46c25.97 9.127 48.446 21.733 68.259 37.536l-0.465-0.358c26.035 19.803 47.095 44.758 61.915 73.458l0.567 1.208c10.844 20.085 18.557 43.508 21.762 68.344l0.107 1.012c0.416 6.338 1.305 12.214 2.645 17.917l-0.145-0.734v32.803s0 1.875 0 2.812c-1.436 14.354-3.97 27.411-7.574 40.016l0.389-1.589c-6.342 18.71-12.574 33.891-19.59 48.627l1.158-2.702c-4.025 9.092-6.99 19.641-8.378 30.681l-0.057 0.56c-0.313 2.272-0.492 4.897-0.492 7.564 0 17.015 7.274 32.332 18.882 43.009l0.042 0.038c5.571 4.507 10.489 9.425 14.851 14.811l0.145 0.185zM30.304 224.625c-0.034 1.265-0.053 2.754-0.053 4.247 0 14.579 1.843 28.728 5.307 42.227l-0.256-1.174c9.111 33.257 25.211 62.006 46.71 85.781l-0.161-0.18c12.721 14.042 27.209 26.144 43.195 36.059l0.855 0.494c15.903 9.822 34.405 17.389 54.135 21.658l1.162 0.211c11.604 2.45 24.937 3.853 38.597 3.853 7.092 0 14.097-0.378 20.993-1.115l-0.857 0.074c24.159-1.919 46.449-8.054 66.764-17.676l-1.158 0.493c6.561-2.812 13.121-6.248 19.995-8.747 5.408-2.341 11.706-3.703 18.322-3.703 7.668 0 14.91 1.83 21.311 5.077l-0.269-0.124c5.421 2.965 11.736 5.62 18.336 7.622l0.721 0.188s3.437 1.875 4.998 0 0-3.124 0-4.686c-4.334-10.408-6.851-22.498-6.851-35.176 0-14.333 3.217-27.913 8.968-40.060l-0.242 0.57c3.749-7.81 7.498-15.308 10.622-23.118 10.506-22.272 16.639-48.378 16.639-75.917 0-8.593-0.597-17.047-1.752-25.322l0.109 0.955c-3.588-20.62-9.894-39.076-18.63-56.079l0.511 1.094c-9.238-19.005-20.399-35.358-33.579-49.841l0.151 0.168c-10.862-11.82-23.066-22.137-36.444-30.797l-0.733-0.444c-28.49-19.428-63.635-31.080-101.493-31.241h-0.041c-5.311 0-10.622 0-15.621 0-10.344 0.104-20.364 1.236-30.039 3.3l0.984-0.176c-45.689 10.049-84.14 35.87-110.235 71.343l-0.359 0.512c-25.325 31.681-40.639 72.327-40.639 116.55 0 1.092 0.009 2.18 0.028 3.268l-0.002-0.164z"></path>
<path fill="#000" d="M223.688 200.569h74.354c12.68 0.334 22.832 10.693 22.832 23.423 0 10.612-7.055 19.577-16.731 22.459l-0.166 0.042c-1.219 0.147-2.63 0.23-4.061 0.23s-2.842-0.084-4.23-0.246l0.168 0.016h-143.71c-0.773 0.085-1.669 0.133-2.577 0.133-8.477 0-15.969-4.221-20.488-10.675l-0.053-0.081c-1.706-3.169-2.708-6.935-2.708-10.935 0-12.904 10.431-23.372 23.321-23.431h0.006z"></path>
<path fill="#000" d="M173.701 319.286c-8.747 0-17.808 0-26.555 0-11.881-1.243-21.062-11.205-21.062-23.311 0-4.173 1.091-8.091 3.003-11.484l-0.061 0.117c3.476-7.275 10.776-12.212 19.228-12.212 0.379 0 0.756 0.010 1.131 0.030l-0.053-0.002h51.236c0.003 0 0.006 0 0.009 0 12.376 0 22.449 9.858 22.797 22.149l0.001 0.032c0.028 0.423 0.043 0.918 0.043 1.416 0 11.792-8.829 21.522-20.237 22.941l-0.113 0.011h-29.367z"></path>
<path fill="#000" d="M271.174 175.264h-24.368c-0.285 0.014-0.62 0.021-0.955 0.021-8.985 0-16.686-5.497-19.924-13.312l-0.053-0.143c-1.419-2.976-2.248-6.468-2.248-10.153 0-5.763 2.026-11.053 5.406-15.196l-0.035 0.043c4.214-5.177 10.588-8.458 17.727-8.458 0.358 0 0.714 0.008 1.068 0.025l-0.050-0.002h48.736c0.362-0.020 0.785-0.032 1.211-0.032 9.507 0 17.674 5.739 21.225 13.94l0.058 0.15c1.503 2.84 2.386 6.208 2.386 9.782 0 5.503-2.093 10.518-5.526 14.291l0.015-0.017c-3.976 5.456-10.315 8.982-17.483 9.060h-0.012z"></path>
</svg>
