<!-- Generated by IcoMoon.io -->
<svg version="1.1" xmlns="http://www.w3.org/2000/svg" width="1139" height="1024" viewBox="0 0 1139 1024">
<title></title>
<g id="icomoon-ignore">
</g>
<path fill="#000" d="M400 181.76c-38.4 22.4-71.040 44.8-72.32 49.92s23.68 23.040 65.92 46.72c36.48 21.12 68.48 42.24 70.4 46.080 5.76 16-3.84 24.96-65.92 59.52l-62.080 35.84-1.28 72.96c-1.92 86.4-5.12 102.4-18.56 102.4-5.76 0-40.32-17.28-77.44-38.4-37.76-20.48-70.4-36.48-73.6-34.56-6.4 3.84-7.040 156.8 0 167.040 5.76 8.96 145.28 91.52 154.24 91.52 4.48 0 7.040-26.24 7.040-75.52 0-40.96 2.56-78.72 5.76-83.84 4.48-7.040 21.12-0.64 84.48 35.2 42.88 24.32 80.64 43.52 83.84 42.24 3.2-0.64 39.040-20.48 80-44.16 58.88-33.28 74.88-40.32 79.36-33.28 3.2 5.12 5.76 42.88 5.76 83.84 0 56.32 1.92 75.52 8.32 75.52 3.84-0.64 40.96-19.84 81.28-43.52l73.6-42.88 1.92-82.56c0.64-45.44-0.64-85.12-3.84-88.32s-34.56 11.52-72.96 33.28c-37.12 21.12-72.32 38.4-78.080 38.4-8.96 0-10.24-10.24-10.24-85.12v-84.48l-80-46.72c-47.36-28.16-78.080-49.28-76.16-54.4 1.28-4.48 30.080-23.68 63.36-42.88 40.32-23.040 60.8-38.4 59.52-44.8-1.92-7.68-147.84-96-158.72-96-1.92 0-34.56 18.56-73.6 40.96z"></path>
<path fill="#000" d="M732.8 182.4c-38.4 22.4-70.4 44.8-70.4 48.64 0 4.48 36.48 29.44 81.28 55.040l81.28 47.36v76.8c0 42.88 1.28 78.72 3.2 80.64s35.84-14.72 75.52-37.12l72.32-41.6v-171.52l-80-49.92c-43.52-27.52-82.56-49.92-86.4-49.92-3.2 0-37.76 18.56-76.8 41.6z"></path>
<path fill="#000" d="M225.92 289.92l-65.92 39.040v163.2l17.92 12.16c29.44 20.48 121.6 71.68 129.28 71.68 3.84 0 6.4-28.16 6.4-78.72v-78.72l67.2-38.4c44.16-24.96 66.56-40.96 65.92-47.36-2.56-12.16-125.44-83.2-142.72-82.56-7.040 0-42.24 17.92-78.080 39.68z"></path>
<path fill="#000" d="M343.68 644.48c-5.76 5.76-5.76 137.6 0.64 147.2 2.56 3.84 37.12 26.24 77.44 50.56l73.6 42.88 25.6-14.080c14.72-7.040 49.28-27.52 77.44-44.16l51.2-30.72 1.92-78.080c1.28-69.76 0.64-78.080-8.96-78.080-5.76 0-40.96 17.28-77.44 38.4-37.12 21.12-67.84 38.4-69.12 38.4s-32-17.28-69.12-38.4c-66.56-38.4-75.52-42.24-83.2-33.92z"></path>
</svg>
