<!-- Generated by IcoMoon.io -->
<svg version="1.1" xmlns="http://www.w3.org/2000/svg" width="510" height="512" viewBox="0 0 510 512">
<title></title>
<g id="icomoon-ignore">
</g>
<path fill="#000" d="M243.512 0.312c-27.681 1.613-56.663 8.065-82.992 18.471-10.406 4.11-27.733 12.748-37.828 18.836-15.454 9.314-31.896 22.114-45.788 35.642-42.614 41.574-69.047 96-75.603 155.733-1.821 16.338-1.561 41.21 0.573 57.444 3.070 23.779 10.406 50.68 19.512 71.961 9.886 23.103 26.328 44.019 43.656 55.623 8.585 5.776 16.338 8.846 28.514 11.447 5.828 1.249 7.805 1.405 16.495 1.405 8.273 0.052 10.823-0.156 15.766-1.144 11.447-2.289 22.166-6.712 31.428-12.956 24.247-16.286 37.203-38.036 38.244-64.156 0.728-17.118-1.769-27.889-14.517-63.479-18.263-50.836-24.663-74.979-28.357-106.927-1.301-11.239-1.301-37.672 0-48.13 2.81-22.686 8.742-42.823 18.16-61.606 7.544-15.090 14.101-23.675 25.912-34.029 26.692-23.363 69.464-33.665 113.639-27.369 3.070 0.417 5.724 0.676 5.827 0.572 0.312-0.312-13.788-3.33-21.177-4.475-11.603-1.873-21.334-2.654-34.81-2.862-7.285-0.104-14.777-0.104-16.65 0z"></path>
<path fill="#000" d="M317.295 8.169c0.364 0.156 0.832 0.104 0.988-0.052 0.208-0.156-0.104-0.312-0.676-0.26-0.572 0-0.728 0.156-0.312 0.312z"></path>
<path fill="#000" d="M335.454 24.247c-20.969 3.799-37.411 18.576-42.979 38.712-4.163 14.986-1.353 32.833 7.024 44.592 5.671 7.961 11.187 13.112 28.826 27.005 15.714 12.332 20.657 16.65 32.676 28.514 30.595 30.179 46.257 54.738 56.56 88.507 12.436 40.742 11.967 83.252-1.301 121.756-6.921 20.032-17.951 40.065-31.115 56.663-17.327 21.75-29.918 31.74-55.727 44.488-48.286 23.779-100.111 29.918-149.645 17.691-26.953-6.66-55.102-19.668-79.61-36.787-5.879-4.111-3.746-1.873 3.070 3.278 32.624 24.404 73.366 41.938 113.795 48.858 22.27 3.851 47.194 4.423 69.151 1.561 30.803-3.902 62.387-14.153 90.224-29.243l7.18-3.902 46.309 12.332c25.444 6.817 46.361 12.279 46.465 12.175 0.104-0.052-2.498-21.801-5.776-48.286-3.226-26.485-5.931-48.858-5.983-49.691-0.104-1.197 0.988-3.226 4.318-8.325 21.853-33.301 35.226-71.388 39.805-113.171 1.301-12.019 1.301-38.452 0-50.471-5.204-47.558-21.334-89.392-49.014-126.699-14.049-19.044-34.601-39.597-54.27-54.426-12.175-9.21-26.953-17.639-38.608-21.957-10.25-3.799-21.541-4.943-31.375-3.174z"></path>
</svg>
